<?xml version="1.0" standalone="no"?>
<!DOCTYPE svg PUBLIC "-//W3C//DTD SVG 20010904//EN"
 "http://www.w3.org/TR/2001/REC-SVG-20010904/DTD/svg10.dtd">
<svg version="1.0" xmlns="http://www.w3.org/2000/svg"
 width="200.000000pt" height="189.000000pt" viewBox="0 0 200.000000 189.000000"
 preserveAspectRatio="xMidYMid meet">

<g transform="translate(0.000000,189.000000) scale(0.100000,-0.100000)"
fill="#000000" stroke="none">
<path d="M525 1760 c-16 -4 -56 -13 -87 -20 l-58 -13 0 -279 0 -278 188 2 187
3 5 139 5 139 50 13 c61 17 267 18 332 3 161 -38 286 -109 383 -216 48 -53 51
-56 45 -28 -13 59 -89 170 -174 255 -100 99 -104 102 -196 157 -73 43 -245
103 -351 122 -68 12 -283 13 -329 1z"/>
<path d="M359 1111 c-21 -17 -24 -29 -27 -98 -2 -50 2 -87 10 -103 20 -36 76
-51 182 -48 l91 3 3 28 3 27 -95 0 c-84 0 -99 3 -117 21 -17 17 -20 30 -16 65
7 69 15 74 128 74 99 0 99 0 99 25 l0 25 -119 0 c-102 0 -122 -3 -142 -19z"/>
<path d="M682 1110 c-19 -18 -22 -31 -22 -109 0 -81 2 -89 26 -112 24 -23 33
-24 141 -24 113 0 115 0 139 28 21 25 24 38 24 111 0 73 -3 85 -23 104 -21 20
-34 22 -143 22 -107 0 -123 -2 -142 -20z m232 -46 c21 -21 21 -107 0 -128 -18
-19 -143 -23 -175 -6 -27 15 -28 124 -1 139 29 17 158 14 176 -5z"/>
<path d="M1037 1123 c-13 -12 -8 -238 5 -251 15 -15 178 -16 229 -2 60 17 74
40 74 130 0 69 -3 82 -24 104 -24 25 -28 26 -151 26 -70 0 -130 -3 -133 -7z
m224 -53 c15 -9 19 -22 19 -65 0 -76 -14 -87 -104 -83 l-71 3 -5 68 c-3 37 -1
72 5 78 12 12 131 12 156 -1z"/>
<path d="M1410 1113 c-33 -38 -29 -201 5 -227 26 -20 84 -28 170 -24 68 3 70
4 73 31 l3 27 -94 0 c-98 0 -126 11 -113 45 4 12 25 15 106 15 99 0 101 0 98
23 -3 21 -8 22 -98 25 -100 3 -122 11 -100 37 10 11 34 15 106 15 94 0 94 0
94 25 l0 25 -117 0 c-97 -1 -121 -4 -133 -17z"/>
<path d="M393 822 c-10 -6 -18 -139 -14 -219 1 -7 19 -17 40 -23 60 -16 252
-41 291 -38 l35 3 6 -210 c3 -116 6 -211 7 -213 3 -4 86 6 152 20 338 67 613
307 697 608 21 78 18 81 -104 79 -100 -2 -104 -3 -189 -72 -89 -71 -234 -141
-355 -170 -134 -33 -171 -38 -186 -29 -8 5 -13 49 -15 137 l-3 130 -175 2
c-97 1 -181 -1 -187 -5z"/>
</g>
</svg>
